<?xml version="1.0" encoding="utf-8"?>
<svg version="1.1" xmlns="http://www.w3.org/2000/svg" xmlns:xlink="http://www.w3.org/1999/xlink" x="0px" y="0px"
	 width="20px" height="20px" viewBox="0 0 20 20" style="enable-background:new 0 0 20 20;" xml:space="preserve">
<g>
	<defs>
		<path id="SVGID_1_" d="M10.2,8.2V12h5.3c-0.2,1.2-0.9,2.3-2,3v2.5h3.2c1.9-1.7,2.9-4.2,2.9-7.2c0-0.7-0.1-1.4-0.2-2H10.2z"/>
	</defs>
	<clipPath id="SVGID_2_">
		<use xlink:href="#SVGID_1_"  style="overflow:visible;"/>
	</clipPath>
	<rect x="4.7" y="2.7" style="clip-path:url(#SVGID_2_);fill:#3E82F1;" width="20.4" height="20.2"/>
</g>
<g>
	<defs>
		<path id="SVGID_3_" d="M1.4,11.9v2.6c1.6,3.2,4.9,5.4,8.8,5.4c2.7,0,4.9-0.9,6.5-2.4L13.5,15c-0.9,0.6-2,0.9-3.3,0.9
			c-2.6,0-4.7-1.7-5.5-4.1H1.4z"/>
	</defs>
	<clipPath id="SVGID_4_">
		<use xlink:href="#SVGID_3_"  style="overflow:visible;"/>
	</clipPath>
	<rect x="-4.1" y="6.4" style="clip-path:url(#SVGID_4_);fill:#32A754;" width="26.3" height="18.9"/>
</g>
<g>
	<defs>
		<path id="SVGID_5_" d="M1.4,5.6c-0.7,1.3-1,2.8-1,4.4s0.4,3.1,1,4.4l3.3-2.6c-0.2-0.6-0.3-1.2-0.3-1.9s0.1-1.3,0.3-1.9V5.6H1.4z"
			/>
	</defs>
	<clipPath id="SVGID_6_">
		<use xlink:href="#SVGID_5_"  style="overflow:visible;"/>
	</clipPath>
	<rect x="-5.1" y="0.1" style="clip-path:url(#SVGID_6_);fill:#F9BB01;" width="15.3" height="19.8"/>
</g>
<g>
	<defs>
		<path id="SVGID_7_" d="M1.4,5.6l3.3,2.6c0.8-2.3,2.9-4.1,5.5-4.1c1.4,0,2.7,0.5,3.8,1.5l2.8-2.8c-1.7-1.6-3.9-2.6-6.6-2.6
			C6.3,0.2,3,2.4,1.4,5.6"/>
	</defs>
	<clipPath id="SVGID_8_">
		<use xlink:href="#SVGID_7_"  style="overflow:visible;"/>
	</clipPath>
	<rect x="-4.1" y="-5.3" style="clip-path:url(#SVGID_8_);fill:#E74133;" width="26.3" height="18.9"/>
</g>
</svg>
