<?xml version="1.0" encoding="utf-8"?>
<!-- Generator: Adobe Illustrator 16.0.0, SVG Export Plug-In . SVG Version: 6.00 Build 0)  -->
<!DOCTYPE svg PUBLIC "-//W3C//DTD SVG 1.1//EN" "http://www.w3.org/Graphics/SVG/1.1/DTD/svg11.dtd">
<svg version="1.1" id="insecure" xmlns="http://www.w3.org/2000/svg" xmlns:xlink="http://www.w3.org/1999/xlink" x="0px" y="0px"
	 width="16px" height="16px" viewBox="0 0 16 16" enable-background="new 0 0 16 16" xml:space="preserve">
<g opacity="0.8">
	<path fill="#FF0037" d="M1.201,14.848c-0.343,0-0.66-0.183-0.831-0.479c-0.172-0.297-0.172-0.663,0-0.96L7.169,1.632
		C7.34,1.335,7.657,1.152,8,1.152c0.344,0,0.66,0.183,0.832,0.48l6.798,11.776c0.172,0.297,0.172,0.663,0,0.96
		c-0.171,0.297-0.488,0.479-0.83,0.479H1.201z"/>
</g>
<g>
	<path fill="#FFFFFF" d="M6.963,11.986h2.075v1.236H6.963V11.986z M8.939,5.36v3.932l-0.297,1.685H7.357L7.063,9.292V5.36H8.939z"/>
</g>
</svg>
