<?xml version="1.0" encoding="utf-8"?>
<!-- Generator: Adobe Illustrator 16.0.0, SVG Export Plug-In . SVG Version: 6.00 Build 0)  -->
<!DOCTYPE svg PUBLIC "-//W3C//DTD SVG 1.1//EN" "http://www.w3.org/Graphics/SVG/1.1/DTD/svg11.dtd">
<svg version="1.1" xmlns="http://www.w3.org/2000/svg" xmlns:xlink="http://www.w3.org/1999/xlink" x="0px" y="0px" width="39px"
	 height="39px" viewBox="0 0 39 39" style="enable-background:new 0 0 39 39;" xml:space="preserve">
<g id="down-dot" style="display:none;">
	<g style="display:inline;opacity:0.8;">
		<g>
			<path style="fill:#FFFFFF;" d="M19.5,30.7c-0.6,0-1.1-0.1-1.5-0.4l-6.8-3.9c-0.9-0.5-1.5-1.6-1.5-2.7v-7.9c0-1,0.7-2.1,1.5-2.7
				L18,9.2c0.8-0.5,2.2-0.5,3.1,0l6.8,3.9c0.9,0.5,1.5,1.6,1.5,2.7v7.9c0,1-0.7,2.2-1.5,2.7l-6.8,3.9C20.7,30.5,20.1,30.7,19.5,30.7
				z M19.5,10.6c-0.3,0-0.5,0.1-0.6,0.1l-6.8,3.9c-0.3,0.2-0.6,0.7-0.6,1.1v7.9c0,0.4,0.3,0.9,0.6,1.1l6.8,3.9c0.3,0.2,1,0.2,1.3,0
				l6.8-3.9c0.3-0.2,0.6-0.7,0.6-1.1v-7.9c0-0.4-0.3-0.9-0.6-1.1l-6.8-3.9C20,10.7,19.8,10.6,19.5,10.6z"/>
		</g>
	</g>
	<g style="display:inline;">
		<path style="fill:#FFFFFF;" d="M13,24.1v-1.4h1.5v-5.5H13v-1.4h4.5v1.4H16v5.5h1.5v1.4H13z"/>
		<path style="fill:#FFFFFF;" d="M19.1,15.7h5.6l1.5,1.6v5.3l-1.5,1.6h-5.6V15.7z M24,22.6l0.7-0.7v-4.1L24,17.1h-3.4v5.5H24z"/>
	</g>
	<circle style="display:inline;opacity:0.8;fill:#FF0037;" cx="30.5" cy="27.5" r="6.1"/>
	<g style="display:inline;">
		<path style="fill:#FFFFFF;" d="M29.5,30.6h2.3V32h-2.3V30.6z M31.6,23.3v4.3l-0.3,1.9h-1.4l-0.3-1.9v-4.3H31.6z"/>
	</g>
</g>
<g id="disable-dot" style="display:none;">
	<g style="display:inline;opacity:0.4;">
		<g>
			<path style="fill:#FFFFFF;" d="M19.5,30.7c-0.6,0-1.1-0.1-1.5-0.4l-6.8-3.9c-0.9-0.5-1.5-1.6-1.5-2.7v-7.9c0-1,0.7-2.1,1.5-2.7
				L18,9.2c0.8-0.5,2.2-0.5,3.1,0l6.8,3.9c0.9,0.5,1.5,1.6,1.5,2.7v7.9c0,1-0.7,2.2-1.5,2.7l-6.8,3.9C20.7,30.5,20.1,30.7,19.5,30.7
				z M19.5,10.6c-0.3,0-0.5,0.1-0.6,0.1l-6.8,3.9c-0.3,0.2-0.6,0.7-0.6,1.1v7.9c0,0.4,0.3,0.9,0.6,1.1l6.8,3.9c0.3,0.2,1,0.2,1.3,0
				l6.8-3.9c0.3-0.2,0.6-0.7,0.6-1.1v-7.9c0-0.4-0.3-0.9-0.6-1.1l-6.8-3.9C20,10.7,19.8,10.6,19.5,10.6z"/>
		</g>
	</g>
	<g style="display:inline;opacity:0.4;">
		<path style="fill:#FFFFFF;" d="M13,24.1v-1.4h1.5v-5.5H13v-1.4h4.5v1.4H16v5.5h1.5v1.4H13z"/>
		<path style="fill:#FFFFFF;" d="M19.1,15.7h5.6l1.5,1.6v5.3l-1.5,1.6h-5.6V15.7z M24,22.6l0.7-0.7v-4.1L24,17.1h-3.4v5.5H24z"/>
	</g>
	<circle style="display:inline;opacity:0.4;fill:#FF0037;" cx="30.5" cy="27.5" r="6.1"/>
	<g style="display:inline;opacity:0.4;">
		<path style="fill:#FFFFFF;" d="M29.5,30.6h2.3V32h-2.3V30.6z M31.6,23.3v4.3l-0.3,1.9h-1.4l-0.3-1.9v-4.3H31.6z"/>
	</g>
</g>
<g id="hover-dot" style="display:none;">
	<rect x="0" y="-0.1" style="display:inline;fill:#00274E;" width="39" height="39.2"/>
	<g style="display:inline;">
		<g>
			<path style="fill:#FFFFFF;" d="M19.5,30.7c-0.6,0-1.1-0.1-1.5-0.4l-6.8-3.9c-0.9-0.5-1.5-1.6-1.5-2.7v-7.9c0-1,0.7-2.1,1.5-2.7
				L18,9.2c0.8-0.5,2.2-0.5,3.1,0l6.8,3.9c0.9,0.5,1.5,1.6,1.5,2.7v7.9c0,1-0.7,2.2-1.5,2.7l-6.8,3.9C20.7,30.5,20.1,30.7,19.5,30.7
				z M19.5,10.6c-0.3,0-0.5,0.1-0.6,0.1l-6.8,3.9c-0.3,0.2-0.6,0.7-0.6,1.1v7.9c0,0.4,0.3,0.9,0.6,1.1l6.8,3.9c0.3,0.2,1,0.2,1.3,0
				l6.8-3.9c0.3-0.2,0.6-0.7,0.6-1.1v-7.9c0-0.4-0.3-0.9-0.6-1.1l-6.8-3.9C20,10.7,19.8,10.6,19.5,10.6z"/>
		</g>
	</g>
	<g style="display:inline;">
		<path style="fill:#FFFFFF;" d="M13,24.1v-1.4h1.5v-5.5H13v-1.4h4.5v1.4H16v5.5h1.5v1.4H13z"/>
		<path style="fill:#FFFFFF;" d="M19.1,15.7h5.6l1.5,1.6v5.3l-1.5,1.6h-5.6V15.7z M24,22.6l0.7-0.7v-4.1L24,17.1h-3.4v5.5H24z"/>
	</g>
	<circle style="display:inline;fill:#FF0037;" cx="30.5" cy="27.5" r="6.1"/>
	<g style="display:inline;">
		<path style="fill:#FFFFFF;" d="M29.5,30.6h2.3V32h-2.3V30.6z M31.6,23.3v4.3l-0.3,1.9h-1.4l-0.3-1.9v-4.3H31.6z"/>
	</g>
</g>
<g id="normal-dot">
	<g style="opacity:0.8;">
		<g>
			<path style="fill:#FFFFFF;" d="M19.5,30.7c-0.6,0-1.1-0.1-1.5-0.4l-6.8-3.9c-0.9-0.5-1.5-1.6-1.5-2.7v-7.9c0-1,0.7-2.1,1.5-2.7
				L18,9.2c0.8-0.5,2.2-0.5,3.1,0l6.8,3.9c0.9,0.5,1.5,1.6,1.5,2.7v7.9c0,1-0.7,2.2-1.5,2.7l-6.8,3.9C20.7,30.5,20.1,30.7,19.5,30.7
				z M19.5,10.6c-0.3,0-0.5,0.1-0.6,0.1l-6.8,3.9c-0.3,0.2-0.6,0.7-0.6,1.1v7.9c0,0.4,0.3,0.9,0.6,1.1l6.8,3.9c0.3,0.2,1,0.2,1.3,0
				l6.8-3.9c0.3-0.2,0.6-0.7,0.6-1.1v-7.9c0-0.4-0.3-0.9-0.6-1.1l-6.8-3.9C20,10.7,19.8,10.6,19.5,10.6z"/>
		</g>
	</g>
	<g>
		<path style="fill:#FFFFFF;" d="M13,24.1v-1.4h1.5v-5.5H13v-1.4h4.5v1.4H16v5.5h1.5v1.4H13z"/>
		<path style="fill:#FFFFFF;" d="M19.1,15.7h5.6l1.5,1.6v5.3l-1.5,1.6h-5.6V15.7z M24,22.6l0.7-0.7v-4.1L24,17.1h-3.4v5.5H24z"/>
	</g>
	<circle style="opacity:0.8;fill:#FF0037;" cx="30.5" cy="27.5" r="6.1"/>
	<g>
		<path style="fill:#FFFFFF;" d="M29.5,30.6h2.3V32h-2.3V30.6z M31.6,23.3v4.3l-0.3,1.9h-1.4l-0.3-1.9v-4.3H31.6z"/>
	</g>
</g>
<g id="down" style="display:none;">
	<linearGradient id="SVGID_1_" gradientUnits="userSpaceOnUse" x1="11.4189" y1="19.7593" x2="27.6709" y2="19.7593">
		<stop  offset="0" style="stop-color:#0073E6"/>
		<stop  offset="1" style="stop-color:#00CCAA"/>
	</linearGradient>
	<path style="display:inline;opacity:0.8;fill:url(#SVGID_1_);" d="M19.5,10.6c-0.3,0-0.5,0.1-0.6,0.1l-6.8,3.9
		c-0.3,0.2-0.6,0.7-0.6,1.1v7.9c0,0.4,0.3,0.9,0.6,1.1l6.8,3.9c0.3,0.2,1,0.2,1.3,0l6.8-3.9c0.3-0.2,0.6-0.7,0.6-1.1v-7.9
		c0-0.4-0.3-0.9-0.6-1.1l-6.8-3.9C20,10.7,19.8,10.6,19.5,10.6z"/>
	<g style="display:inline;opacity:0.8;">
		<g>
			<path style="fill:#FFFFFF;" d="M19.5,30.7c-0.6,0-1.1-0.1-1.5-0.4l-6.8-3.9c-0.9-0.5-1.5-1.6-1.5-2.7v-7.9c0-1,0.7-2.1,1.5-2.7
				L18,9.2c0.8-0.5,2.2-0.5,3.1,0l6.8,3.9c0.9,0.5,1.5,1.6,1.5,2.7v7.9c0,1-0.7,2.2-1.5,2.7l-6.8,3.9C20.7,30.5,20.1,30.7,19.5,30.7
				z M19.5,10.6c-0.3,0-0.5,0.1-0.6,0.1l-6.8,3.9c-0.3,0.2-0.6,0.7-0.6,1.1v7.9c0,0.4,0.3,0.9,0.6,1.1l6.8,3.9c0.3,0.2,1,0.2,1.3,0
				l6.8-3.9c0.3-0.2,0.6-0.7,0.6-1.1v-7.9c0-0.4-0.3-0.9-0.6-1.1l-6.8-3.9C20,10.7,19.8,10.6,19.5,10.6z"/>
		</g>
	</g>
	<polygon style="display:inline;opacity:0.8;fill:#FFFFFF;" points="25.1,14.7 17.5,21 13.9,18.4 12.5,19.9 16.9,25 17.6,25.9 
		18.4,25 26.6,16.2 	"/>
</g>
<g id="disable" style="display:none;">
	<linearGradient id="SVGID_2_" gradientUnits="userSpaceOnUse" x1="11.4189" y1="19.7593" x2="27.6709" y2="19.7593">
		<stop  offset="0" style="stop-color:#0073E6"/>
		<stop  offset="1" style="stop-color:#00CCAA"/>
	</linearGradient>
	<path style="display:inline;opacity:0.4;fill:url(#SVGID_2_);" d="M19.5,10.6c-0.3,0-0.5,0.1-0.6,0.1l-6.8,3.9
		c-0.3,0.2-0.6,0.7-0.6,1.1v7.9c0,0.4,0.3,0.9,0.6,1.1l6.8,3.9c0.3,0.2,1,0.2,1.3,0l6.8-3.9c0.3-0.2,0.6-0.7,0.6-1.1v-7.9
		c0-0.4-0.3-0.9-0.6-1.1l-6.8-3.9C20,10.7,19.8,10.6,19.5,10.6z"/>
	<g style="display:inline;opacity:0.4;">
		<g>
			<path style="fill:#FFFFFF;" d="M19.5,30.7c-0.6,0-1.1-0.1-1.5-0.4l-6.8-3.9c-0.9-0.5-1.5-1.6-1.5-2.7v-7.9c0-1,0.7-2.1,1.5-2.7
				L18,9.2c0.8-0.5,2.2-0.5,3.1,0l6.8,3.9c0.9,0.5,1.5,1.6,1.5,2.7v7.9c0,1-0.7,2.2-1.5,2.7l-6.8,3.9C20.7,30.5,20.1,30.7,19.5,30.7
				z M19.5,10.6c-0.3,0-0.5,0.1-0.6,0.1l-6.8,3.9c-0.3,0.2-0.6,0.7-0.6,1.1v7.9c0,0.4,0.3,0.9,0.6,1.1l6.8,3.9c0.3,0.2,1,0.2,1.3,0
				l6.8-3.9c0.3-0.2,0.6-0.7,0.6-1.1v-7.9c0-0.4-0.3-0.9-0.6-1.1l-6.8-3.9C20,10.7,19.8,10.6,19.5,10.6z"/>
		</g>
	</g>
	<polygon style="display:inline;opacity:0.4;fill:#FFFFFF;" points="25.1,14.7 17.5,21 13.9,18.4 12.5,19.9 16.9,25 17.6,25.9 
		18.4,25 26.6,16.2 	"/>
</g>
<g id="hover_1_" style="display:none;">
	<rect x="0" y="-0.1" style="display:inline;fill:#00274E;" width="39" height="39.2"/>
	<linearGradient id="SVGID_3_" gradientUnits="userSpaceOnUse" x1="11.4189" y1="19.7593" x2="27.6709" y2="19.7593">
		<stop  offset="0" style="stop-color:#0073E6"/>
		<stop  offset="1" style="stop-color:#00CCAA"/>
	</linearGradient>
	<path style="display:inline;fill:url(#SVGID_3_);" d="M19.5,10.6c-0.3,0-0.5,0.1-0.6,0.1l-6.8,3.9c-0.3,0.2-0.6,0.7-0.6,1.1v7.9
		c0,0.4,0.3,0.9,0.6,1.1l6.8,3.9c0.3,0.2,1,0.2,1.3,0l6.8-3.9c0.3-0.2,0.6-0.7,0.6-1.1v-7.9c0-0.4-0.3-0.9-0.6-1.1l-6.8-3.9
		C20,10.7,19.8,10.6,19.5,10.6z"/>
	<g style="display:inline;">
		<g>
			<path style="fill:#FFFFFF;" d="M19.5,30.7c-0.6,0-1.1-0.1-1.5-0.4l-6.8-3.9c-0.9-0.5-1.5-1.6-1.5-2.7v-7.9c0-1,0.7-2.1,1.5-2.7
				L18,9.2c0.8-0.5,2.2-0.5,3.1,0l6.8,3.9c0.9,0.5,1.5,1.6,1.5,2.7v7.9c0,1-0.7,2.2-1.5,2.7l-6.8,3.9C20.7,30.5,20.1,30.7,19.5,30.7
				z M19.5,10.6c-0.3,0-0.5,0.1-0.6,0.1l-6.8,3.9c-0.3,0.2-0.6,0.7-0.6,1.1v7.9c0,0.4,0.3,0.9,0.6,1.1l6.8,3.9c0.3,0.2,1,0.2,1.3,0
				l6.8-3.9c0.3-0.2,0.6-0.7,0.6-1.1v-7.9c0-0.4-0.3-0.9-0.6-1.1l-6.8-3.9C20,10.7,19.8,10.6,19.5,10.6z"/>
		</g>
	</g>
	<polygon style="display:inline;fill:#FFFFFF;" points="25.1,14.7 17.5,21 13.9,18.4 12.5,19.9 16.9,25 17.6,25.9 18.4,25 
		26.6,16.2 	"/>
</g>
<g id="normal" style="display:none;">
	<linearGradient id="SVGID_4_" gradientUnits="userSpaceOnUse" x1="11.4189" y1="19.7593" x2="27.6709" y2="19.7593">
		<stop  offset="0" style="stop-color:#0073E6"/>
		<stop  offset="1" style="stop-color:#00CCAA"/>
	</linearGradient>
	<path style="display:inline;opacity:0.8;fill:url(#SVGID_4_);" d="M19.5,10.6c-0.3,0-0.5,0.1-0.6,0.1l-6.8,3.9
		c-0.3,0.2-0.6,0.7-0.6,1.1v7.9c0,0.4,0.3,0.9,0.6,1.1l6.8,3.9c0.3,0.2,1,0.2,1.3,0l6.8-3.9c0.3-0.2,0.6-0.7,0.6-1.1v-7.9
		c0-0.4-0.3-0.9-0.6-1.1l-6.8-3.9C20,10.7,19.8,10.6,19.5,10.6z"/>
	<g style="display:inline;opacity:0.8;">
		<g>
			<path style="fill:#FFFFFF;" d="M19.5,30.7c-0.6,0-1.1-0.1-1.5-0.4l-6.8-3.9c-0.9-0.5-1.5-1.6-1.5-2.7v-7.9c0-1,0.7-2.1,1.5-2.7
				L18,9.2c0.8-0.5,2.2-0.5,3.1,0l6.8,3.9c0.9,0.5,1.5,1.6,1.5,2.7v7.9c0,1-0.7,2.2-1.5,2.7l-6.8,3.9C20.7,30.5,20.1,30.7,19.5,30.7
				z M19.5,10.6c-0.3,0-0.5,0.1-0.6,0.1l-6.8,3.9c-0.3,0.2-0.6,0.7-0.6,1.1v7.9c0,0.4,0.3,0.9,0.6,1.1l6.8,3.9c0.3,0.2,1,0.2,1.3,0
				l6.8-3.9c0.3-0.2,0.6-0.7,0.6-1.1v-7.9c0-0.4-0.3-0.9-0.6-1.1l-6.8-3.9C20,10.7,19.8,10.6,19.5,10.6z"/>
		</g>
	</g>
	<polygon style="display:inline;opacity:0.8;fill:#FFFFFF;" points="25.1,14.7 17.5,21 13.9,18.4 12.5,19.9 16.9,25 17.6,25.9 
		18.4,25 26.6,16.2 	"/>
</g>
</svg>
