<?xml version="1.0" encoding="utf-8"?>
<!-- Generator: Adobe Illustrator 16.0.0, SVG Export Plug-In . SVG Version: 6.00 Build 0)  -->
<!DOCTYPE svg PUBLIC "-//W3C//DTD SVG 1.1//EN" "http://www.w3.org/Graphics/SVG/1.1/DTD/svg11.dtd">
<svg version="1.1"
    xmlns="http://www.w3.org/2000/svg"
    xmlns:xlink="http://www.w3.org/1999/xlink" x="0px" y="0px" width="20px"
	 height="20px" viewBox="0 0 20 20" style="enable-background:new 0 0 20 20;" xml:space="preserve">
    <g id="down" >
        <g style="display:inline;">
            <path d="M7.2,12.9c-0.2,0.2-0.5,0.6-0.8,0.8l-1.7,1.8C4.5,15.8,4.6,16,4.9,16h3.9c0.3,0,0.7-0.2,0.9-0.4
			l0.1-0.2c0.4-0.4,0.2-0.6,0-0.8l-1.7-1.8c-0.2-0.2-0.6-0.2-0.8,0L7.2,12.9z"/>
            <path d="M19.3,3.2c-0.6-0.6-1.6-0.7-2.3-0.1l0,0l-0.1,0.1c0,0,0,0,0,0c0,0,0,0,0,0l-8.2,8.2l2.5,2.5
			l8.2-8.2l0.1-0.1l0,0C19.9,4.8,19.9,3.8,19.3,3.2z"/>
            <path d="M13.7,17.6H2.8V2.4h6.9v3.3c0,0.9,0.6,1.7,1.5,2l3.6-3.5l-2.9-4H9.7H2.8c-1.2,0-2.2,1-2.2,2.2v15.2
			c0,1.2,1,2.2,2.2,2.2h10.9c1.2,0,2.2-1,2.2-2.2v-7.4l-2.2,2.1V17.6z"/>
        </g>
    </g>
    <g id="disable">
        <g style="display:inline;opacity:0.4;">
            <path d="M7.2,12.9c-0.2,0.2-0.5,0.6-0.8,0.8l-1.7,1.8C4.5,15.8,4.6,16,4.9,16h3.9c0.3,0,0.7-0.2,0.9-0.4
			l0.1-0.2c0.4-0.4,0.2-0.6,0-0.8l-1.7-1.8c-0.2-0.2-0.6-0.2-0.8,0L7.2,12.9z"/>
            <path d="M19.3,3.2c-0.6-0.6-1.6-0.7-2.3-0.1l0,0l-0.1,0.1c0,0,0,0,0,0c0,0,0,0,0,0l-8.2,8.2l2.5,2.5
			l8.2-8.2l0.1-0.1l0,0C19.9,4.8,19.9,3.8,19.3,3.2z"/>
            <path d="M13.7,17.6H2.8V2.4h6.9v3.3c0,0.9,0.6,1.7,1.5,2l3.6-3.5l-2.9-4H9.7H2.8c-1.2,0-2.2,1-2.2,2.2v15.2
			c0,1.2,1,2.2,2.2,2.2h10.9c1.2,0,2.2-1,2.2-2.2v-7.4l-2.2,2.1V17.6z"/>
        </g>
    </g>
    <g id="hover">
        <g style="display:inline;">
            <path d="M7.2,12.9c-0.2,0.2-0.5,0.6-0.8,0.8l-1.7,1.8C4.5,15.8,4.6,16,4.9,16h3.9c0.3,0,0.7-0.2,0.9-0.4
			l0.1-0.2c0.4-0.4,0.2-0.6,0-0.8l-1.7-1.8c-0.2-0.2-0.6-0.2-0.8,0L7.2,12.9z"/>
            <path d="M19.3,3.2c-0.6-0.6-1.6-0.7-2.3-0.1l0,0l-0.1,0.1c0,0,0,0,0,0c0,0,0,0,0,0l-8.2,8.2l2.5,2.5
			l8.2-8.2l0.1-0.1l0,0C19.9,4.8,19.9,3.8,19.3,3.2z"/>
            <path d="M13.7,17.6H2.8V2.4h6.9v3.3c0,0.9,0.6,1.7,1.5,2l3.6-3.5l-2.9-4H9.7H2.8c-1.2,0-2.2,1-2.2,2.2v15.2
			c0,1.2,1,2.2,2.2,2.2h10.9c1.2,0,2.2-1,2.2-2.2v-7.4l-2.2,2.1V17.6z"/>
        </g>
    </g>
    <g id="normal">
        <g>
            <path d="M7.2,12.9c-0.2,0.2-0.5,0.6-0.8,0.8l-1.7,1.8C4.5,15.8,4.6,16,4.9,16h3.9c0.3,0,0.7-0.2,0.9-0.4
			l0.1-0.2c0.4-0.4,0.2-0.6,0-0.8l-1.7-1.8c-0.2-0.2-0.6-0.2-0.8,0L7.2,12.9z"/>
            <path d="M19.3,3.2c-0.6-0.6-1.6-0.7-2.3-0.1l0,0l-0.1,0.1c0,0,0,0,0,0c0,0,0,0,0,0l-8.2,8.2l2.5,2.5
			l8.2-8.2l0.1-0.1l0,0C19.9,4.8,19.9,3.8,19.3,3.2z"/>
            <path d="M13.7,17.6H2.8V2.4h6.9v3.3c0,0.9,0.6,1.7,1.5,2l3.6-3.5l-2.9-4H9.7H2.8c-1.2,0-2.2,1-2.2,2.2v15.2
			c0,1.2,1,2.2,2.2,2.2h10.9c1.2,0,2.2-1,2.2-2.2v-7.4l-2.2,2.1V17.6z"/>
        </g>
    </g>
</svg>
