<?xml version="1.0" encoding="utf-8"?>
<!-- Generator: Adobe Illustrator 16.0.0, SVG Export Plug-In . SVG Version: 6.00 Build 0)  -->
<!DOCTYPE svg PUBLIC "-//W3C//DTD SVG 1.1//EN" "http://www.w3.org/Graphics/SVG/1.1/DTD/svg11.dtd">
<svg version="1.1" id="圖層_1" xmlns="http://www.w3.org/2000/svg" xmlns:xlink="http://www.w3.org/1999/xlink" x="0px" y="0px"
	 width="45px" height="45px" viewBox="0 0 45 45" style="enable-background:new 0 0 45 45;" xml:space="preserve">
<linearGradient id="SVGID_1_" gradientUnits="userSpaceOnUse" x1="3.4155" y1="22.4419" x2="41.623" y2="22.4419">
	<stop  offset="0" style="stop-color:#0073E6"/>
	<stop  offset="1" style="stop-color:#00CCAA"/>
</linearGradient>
<path style="fill:url(#SVGID_1_);" d="M22.5,0.9c-0.6,0-1.2,0.1-1.5,0.3L4.9,10.5c-0.8,0.4-1.5,1.7-1.5,2.6v18.5
	c0,0.9,0.8,2.2,1.5,2.6L21,43.6c0.7,0.4,2.3,0.4,3,0l16.1-9.3c0.8-0.4,1.5-1.7,1.5-2.6V13.2c0-0.9-0.8-2.2-1.5-2.6L24,1.3
	C23.7,1.1,23.1,0.9,22.5,0.9z"/>
<g>
	<g>
		<path style="fill:#FFFFFF;" d="M22.5,44.7c-1.2,0-2.3-0.3-3.1-0.8l-13.9-8c-1.8-1-3.1-3.4-3.1-5.4V14.4c0-2.1,1.3-4.4,3.1-5.4
			l13.9-8c1.7-1,4.5-1,6.3,0l13.9,8c1.8,1,3.1,3.4,3.1,5.4v16.1c0,2.1-1.3,4.4-3.1,5.4l-13.9,8C24.8,44.4,23.7,44.7,22.5,44.7z
			 M22.5,3.8c-0.5,0-1,0.1-1.3,0.3l-13.9,8c-0.7,0.4-1.3,1.5-1.3,2.3v16.1c0,0.8,0.7,1.9,1.3,2.3l13.9,8.1c0.6,0.4,2,0.4,2.6,0
			l13.9-8.1c0.7-0.4,1.3-1.5,1.3-2.3V14.4c0-0.8-0.7-1.9-1.3-2.3L23.8,4C23.5,3.9,23,3.8,22.5,3.8z"/>
	</g>
</g>
<polygon style="fill:#FFFFFF;" points="33.9,12.1 18.2,25 11.1,19.7 8.2,22.8 17,33.1 18.6,34.9 20.2,33.2 36.9,15.2 "/>
</svg>
