<?xml version="1.0" encoding="utf-8"?>
<!-- Generator: Adobe Illustrator 16.0.0, SVG Export Plug-In . SVG Version: 6.00 Build 0)  -->
<!DOCTYPE svg PUBLIC "-//W3C//DTD SVG 1.1//EN" "http://www.w3.org/Graphics/SVG/1.1/DTD/svg11.dtd">
<svg version="1.1" id="normal" xmlns="http://www.w3.org/2000/svg" xmlns:xlink="http://www.w3.org/1999/xlink" x="0px" y="0px"
	 width="48px" height="48px" viewBox="0 0 48 48" style="enable-background:new 0 0 48 48;" xml:space="preserve">
<g>
	<path style="fill:#FFFFFF;" d="M24,47.9c-1.2,0-2.4-0.3-3.3-0.8L5.7,38.4c-1.9-1.1-3.3-3.6-3.3-5.8V15.4c0-2.2,1.4-4.7,3.3-5.8
		L20.6,1C22.5,0,25.5,0,27.3,1l14.9,8.6c1.9,1.1,3.3,3.6,3.3,5.8v17.2c0,2.2-1.4,4.7-3.3,5.8L27.3,47C26.4,47.6,25.2,47.9,24,47.9z
		 M24,4.1c-0.5,0-1.1,0.1-1.4,0.3L7.7,13c-0.7,0.4-1.4,1.6-1.4,2.4v17.2c0,0.8,0.7,2,1.4,2.4l14.9,8.6c0.7,0.4,2.2,0.4,2.8,0
		l14.9-8.6c0.7-0.4,1.4-1.6,1.4-2.4V15.4c0-0.8-0.7-2-1.4-2.4L25.4,4.4C25,4.2,24.5,4.1,24,4.1z"/>
</g>
<polygon style="fill:#FFFFFF;" points="36.2,13 19.4,26.8 11.7,21.1 8.7,24.5 18.1,35.5 19.8,37.4 21.5,35.6 39.3,16.3 "/>
</svg>
