<?xml version="1.0" encoding="utf-8"?>
<!-- Generator: Adobe Illustrator 16.0.0, SVG Export Plug-In . SVG Version: 6.00 Build 0)  -->
<!DOCTYPE svg PUBLIC "-//W3C//DTD SVG 1.1//EN" "http://www.w3.org/Graphics/SVG/1.1/DTD/svg11.dtd">
<svg version="1.1" id="lock" xmlns="http://www.w3.org/2000/svg" xmlns:xlink="http://www.w3.org/1999/xlink" x="0px" y="0px"
	 width="16px" height="16px" viewBox="0 0 16 16" style="enable-background:new 0 0 16 16;" xml:space="preserve">
<path style="fill:#FFFFFF;" d="M13,5.9h-0.6V4.6c0-2.3-2-4.2-4.4-4.2S3.6,2.2,3.6,4.6v1.3H3c-0.5,0-1,0.4-1,0.9v7.9
	c0,0.5,0.4,0.9,1,0.9h10c0.5,0,1-0.4,1-0.9V6.8C14,6.3,13.6,5.9,13,5.9z M8.7,14H7.3l0-3.6c-0.5-0.2-0.9-0.6-0.9-1.1
	C6.4,8.6,7.1,8,8,8c0.9,0,1.6,0.6,1.6,1.3c0,0.5-0.4,0.9-0.9,1.1L8.7,14z M5.6,5.9V4.6c0-1.2,1.1-2.3,2.4-2.3c1.3,0,2.4,1.1,2.4,2.3
	v1.3H5.6z"/>
</svg>
