<?xml version="1.0" encoding="utf-8"?>
<!-- Generator: Adobe Illustrator 16.0.0, SVG Export Plug-In . SVG Version: 6.00 Build 0)  -->
<!DOCTYPE svg PUBLIC "-//W3C//DTD SVG 1.1//EN" "http://www.w3.org/Graphics/SVG/1.1/DTD/svg11.dtd">
<svg version="1.1" xmlns="http://www.w3.org/2000/svg" xmlns:xlink="http://www.w3.org/1999/xlink" x="0px" y="0px" width="24px"
	 height="24px" viewBox="0 0 24 24" style="enable-background:new 0 0 24 24;" xml:space="preserve">
<g id="圖層_1" style="opacity:0.6;">
	<g>
		<g>
			<path style="fill:#FFFFFF;" d="M10.8,22.9c-0.6,0-1.1-0.1-1.6-0.4l-6.9-4c-0.9-0.5-1.6-1.7-1.6-2.7v-8c0-1,0.7-2.2,1.6-2.7l6.9-4
				c0.9-0.5,2.2-0.5,3.1,0l6.9,4c0.9,0.5,1.6,1.7,1.6,2.7v8c0,1-0.7,2.2-1.6,2.7l-6.9,4C11.9,22.7,11.4,22.9,10.8,22.9z M10.8,2.6
				c-0.3,0-0.5,0.1-0.7,0.1l-6.9,4C2.9,6.9,2.6,7.4,2.6,7.8v8c0,0.4,0.3,0.9,0.7,1.1l6.9,4c0.3,0.2,1,0.2,1.3,0l6.9-4
				c0.3-0.2,0.7-0.7,0.7-1.1v-8c0-0.4-0.3-0.9-0.7-1.1l-6.9-4C11.3,2.6,11,2.6,10.8,2.6z"/>
		</g>
	</g>
	<g>
		<g>
			<path style="fill:#939393;" d="M10.8,22.9c-0.6,0-1.1-0.1-1.6-0.4l-6.9-4c-0.9-0.5-1.6-1.7-1.6-2.7v-8c0-1,0.7-2.2,1.6-2.7l6.9-4
				c0.9-0.5,2.2-0.5,3.1,0l6.9,4c0.9,0.5,1.6,1.7,1.6,2.7v8c0,1-0.7,2.2-1.6,2.7l-6.9,4C11.9,22.7,11.4,22.9,10.8,22.9z M10.8,2.6
				c-0.3,0-0.5,0.1-0.7,0.1l-6.9,4C2.9,6.9,2.6,7.4,2.6,7.8v8c0,0.4,0.3,0.9,0.7,1.1l6.9,4c0.3,0.2,1,0.2,1.3,0l6.9-4
				c0.3-0.2,0.7-0.7,0.7-1.1v-8c0-0.4-0.3-0.9-0.7-1.1l-6.9-4C11.3,2.6,11,2.6,10.8,2.6z"/>
		</g>
	</g>
</g>
<g id="圖層_2">
	<linearGradient id="SVGID_1_" gradientUnits="userSpaceOnUse" x1="1.0454" y1="11.4409" x2="19.9902" y2="11.4409">
		<stop  offset="0" style="stop-color:#0073E6"/>
		<stop  offset="1" style="stop-color:#00CCAA"/>
	</linearGradient>
	<path style="fill:url(#SVGID_1_);" d="M10.5,0.8c-0.3,0-0.6,0.1-0.8,0.2l-8,4.6C1.4,5.8,1,6.4,1,6.8V16c0,0.4,0.4,1.1,0.8,1.3
		l8,4.6c0.4,0.2,1.1,0.2,1.5,0l8-4.6c0.4-0.2,0.8-0.9,0.8-1.3V6.8c0-0.4-0.4-1.1-0.8-1.3l-8-4.6C11.1,0.8,10.8,0.8,10.5,0.8z"/>
	<g>
		<g>
			<path style="fill:#FFFFFF;" d="M10.5,22.5c-0.6,0-1.1-0.1-1.6-0.4l-6.9-4c-0.9-0.5-1.6-1.7-1.6-2.7v-8c0-1,0.7-2.2,1.6-2.7l6.9-4
				c0.9-0.5,2.2-0.5,3.1,0l6.9,4c0.9,0.5,1.6,1.7,1.6,2.7v8c0,1-0.7,2.2-1.6,2.7l-6.9,4C11.6,22.3,11.1,22.5,10.5,22.5z M10.5,2.2
				c-0.3,0-0.5,0.1-0.7,0.1L3,6.3C2.6,6.5,2.3,7.1,2.3,7.4v8c0,0.4,0.3,0.9,0.7,1.1l6.9,4c0.3,0.2,1,0.2,1.3,0l6.9-4
				c0.3-0.2,0.7-0.7,0.7-1.1v-8c0-0.4-0.3-0.9-0.7-1.1l-6.9-4C11,2.2,10.8,2.2,10.5,2.2z"/>
		</g>
	</g>
	<polygon style="fill:#FFFFFF;" points="16.2,6.3 8.4,12.7 4.8,10.1 3.4,11.6 7.8,16.7 8.6,17.6 9.4,16.8 17.6,7.8 	"/>
</g>
</svg>
