<?xml version="1.0" encoding="utf-8"?>
<svg version="1.1" xmlns="http://www.w3.org/2000/svg" xmlns:xlink="http://www.w3.org/1999/xlink" x="0px" y="0px"
	 width="48px" height="48px" viewBox="0 0 48 48">
   <g id="info">
    <path d="M24.081,0.438c-13.058,0-23.644,10.585-23.644,23.643s10.585,23.644,23.644,23.644
    c13.058,0,23.646-10.586,23.646-23.644S37.139,0.438,24.081,0.438z M26.521,8.089c2.165,0,3.917,1.754,3.917,3.92
    c0,2.166-1.752,3.919-3.917,3.919s-3.92-1.754-3.92-3.919C22.601,9.843,24.355,8.089,26.521,8.089z M30.71,35.045
    c-0.142,0.092-0.34,0.229-0.585,0.397c-2.003,1.385-6.701,4.631-10.188,4.631c-0.97,0-1.795-0.249-2.454-0.742
    c-2.818-2.096-0.221-7.494,2.07-12.255c0.88-1.831,2.067-4.301,2.022-5.054c-0.493,0.045-1.668,0.467-4.681,2.514
    c-0.048,0.042-0.242,0.197-0.517,0.199l-1.015,0.055v-0.497l0.422-0.693c0.495-0.857,5.519-6.26,9.961-6.26
    c0.891,0,1.718,0.213,2.45,0.634c2.101,1.204,0.119,5.24-2.174,9.909c-1.319,2.688-3.529,7.188-2.769,7.909
    c0.688,0.654,1.8-0.177,2.948-0.971c1.029-0.712,2.092-1.444,3.151-1.444c0.538,0,1.023,0.186,1.438,0.556l0.684,0.608L30.71,35.045
    z"/>
   </g>

</svg>
