<?xml version="1.0" encoding="utf-8"?>
<svg version="1.1" xmlns="http://www.w3.org/2000/svg" xmlns:xlink="http://www.w3.org/1999/xlink" x="0px" y="0px" width="39px"
	 height="39px" viewBox="0 0 39 39">
  <g id="setting">
    <path d="M26.939,18.146h-2.252c-0.127-0.482-0.317-0.936-0.564-1.354l1.596-1.595
      c0.309-0.309,0.389-0.725,0.18-0.934l-1.162-1.162c-0.207-0.208-0.625-0.128-0.934,0.18l-1.594,1.595
      c-0.42-0.247-0.873-0.438-1.355-0.563v-2.253c0-0.436-0.238-0.787-0.533-0.787h-1.643c-0.294,0-0.533,0.352-0.533,0.787v2.253
      c-0.483,0.126-0.936,0.316-1.355,0.563l-1.595-1.595c-0.307-0.308-0.725-0.388-0.932-0.18l-1.162,1.162
      c-0.209,0.208-0.129,0.625,0.18,0.933l1.594,1.594c-0.247,0.42-0.438,0.873-0.564,1.356h-2.252c-0.435,0-0.787,0.238-0.786,0.531
      v1.645c-0.001,0.293,0.351,0.531,0.787,0.531h2.251c0.126,0.484,0.317,0.938,0.564,1.357l-1.594,1.594
      c-0.308,0.307-0.389,0.725-0.18,0.932l1.162,1.162c0.207,0.209,0.624,0.129,0.932-0.18l1.594-1.594
      c0.42,0.246,0.873,0.438,1.356,0.563v2.252c0,0.436,0.238,0.787,0.533,0.787h1.643c0.295,0,0.533-0.352,0.533-0.787v-2.252
      c0.482-0.125,0.936-0.316,1.355-0.563l1.594,1.594c0.309,0.309,0.725,0.389,0.934,0.18l1.162-1.162
      c0.207-0.207,0.127-0.625-0.18-0.934l-1.596-1.594c0.247-0.42,0.438-0.873,0.564-1.355l2.252,0.002
      c0.436,0,0.787-0.238,0.787-0.533v-1.645C27.727,18.384,27.375,18.145,26.939,18.146z M19.499,21.799
      c-1.27,0-2.298-1.029-2.298-2.298c0-1.271,1.029-2.299,2.298-2.299c1.269,0,2.298,1.028,2.298,2.299
      C21.797,20.77,20.768,21.799,19.499,21.799z"/>
  </g>
</svg>
