<?xml version="1.0" encoding="utf-8"?>
<svg version="1.1" xmlns="http://www.w3.org/2000/svg" xmlns:xlink="http://www.w3.org/1999/xlink" x="0px" y="0px"
	 width="48px" height="48px" viewBox="0 0 48 48">
<g>
	<circle cx="24.1" cy="18.7" r="8.8"/>
	<path  d="M24.1,0.7C11.2,0.7,0.7,11.1,0.7,24c0,12.9,10.5,23.4,23.4,23.4C37,47.4,47.5,36.9,47.5,24
		C47.5,11.1,37,0.7,24.1,0.7z M38.9,38.7c-1.2-4.3-4.2-7.2-8.8-8.7c-1.5-0.5-4.4,0.9-6,0.9c-2.1,0-5.4-1.2-7.3-0.4
		c-4,1.7-6.5,4.4-7.5,8.2c-3.7-3.8-6-8.9-6-14.6c0-11.5,9.4-20.8,20.8-20.8C35.6,3.2,45,12.5,45,24C45,29.7,42.7,34.9,38.9,38.7z"/>
</g>
</svg>
