<?xml version="1.0" encoding="utf-8"?>
<svg version="1.1" xmlns="http://www.w3.org/2000/svg" xmlns:xlink="http://www.w3.org/1999/xlink" x="0px" y="0px"
	 width="20px" height="20px" viewBox="0 0 20 20" xml:space="preserve">
<g>
	<defs>
		<rect id="SVGID_1_" x="-570" y="-325" width="512" height="512"/>
	</defs>
	<clipPath id="SVGID_2_">
		<use xlink:href="#SVGID_1_"  style="overflow:visible;"/>
	</clipPath>
</g>
<g>
	<path d="M19,0H1C0.4,0,0,0.4,0,1.1v7.8l0.9,0.3l4.8,2c0.4-0.3,1-0.5,1.5-0.5c0.1,0,0.3,0,0.3,0L10,7.4v0
		c0-2,1.5-3.7,3.5-3.7c2,0,3.6,1.6,3.6,3.6c0,2-1.7,3.7-3.7,3.7c0,0-0.1,0-0.1,0L10,13.4c0,0,0,0.1,0,0.1c0,1.5-1.2,2.8-2.7,2.8
		c-1.3,0-2.4-1-2.7-2.2l-3.7-1.5c0,0,0,0,0,0L0,12.2v7C0,19.6,0.4,20,1,20h18c0.6,0,1-0.4,1-1V1C20,0.4,19.6,0,19,0z"/>
	<path d="M6.6,14.9l-1.2-0.5c0.2,0.4,0.6,0.8,1.1,1c1,0.4,2.2-0.1,2.7-1.1c0.2-0.5,0.2-1.1,0-1.6
		c-0.2-0.5-0.6-0.9-1.1-1.1c-0.5-0.2-1-0.2-1.5,0l1.2,0.5c0.8,0.3,1.1,1.2,0.8,2C8.2,14.9,7.3,15.3,6.6,14.9z"/>
	<path  d="M15.9,7.3c0-1.4-1.1-2.4-2.4-2.4c-1.3,0-2.4,1.1-2.4,2.4c0,1.4,1.1,2.4,2.4,2.4
		C14.9,9.7,15.9,8.6,15.9,7.3z M11.7,7.3c0-1,0.8-1.8,1.8-1.8s1.8,0.8,1.8,1.8c0,1-0.8,1.8-1.8,1.8S11.7,8.3,11.7,7.3z"/>
</g>
</svg>
