<?xml version="1.0" encoding="utf-8"?>
<svg version="1.1" xmlns="http://www.w3.org/2000/svg" xmlns:xlink="http://www.w3.org/1999/xlink" x="0px" y="0px" width="39px"
	 height="39px" viewBox="0 0 39 39" >
    <linearGradient id="verification-color" gradientUnits="userSpaceOnUse" x1="9.6816" y1="19.7593" x2="28.3867" y2="19.7593">
      <stop  offset="0" style="stop-color:#0073E6"/>
      <stop  offset="1" style="stop-color:#00CCAA"/>
    </linearGradient>
    <g id="verification">
      <path fill="url(#verification-color)" d="M19.033,9.232c-0.29,0-0.568,0.061-0.743,0.162l-7.865,4.542c-0.375,0.216-0.744,0.854-0.744,1.287
        v9.08c0,0.434,0.368,1.071,0.744,1.288l7.865,4.542c0.351,0.203,1.135,0.203,1.487,0l7.865-4.542
        c0.375-0.217,0.744-0.854,0.744-1.288v-9.08c0-0.433-0.369-1.071-0.744-1.287l-7.865-4.542C19.602,9.293,19.324,9.232,19.033,9.232
        z"/>
      <g>
        <g>
          <path fill="#FFFFFF" d="M19.033,30.663c-0.565,0-1.111-0.136-1.532-0.377l-6.824-3.94c-0.873-0.504-1.532-1.645-1.532-2.655
            v-7.879c0-1.009,0.659-2.148,1.532-2.654l6.824-3.939c0.844-0.484,2.222-0.484,3.065,0l6.822,3.939
            c0.875,0.506,1.533,1.646,1.533,2.654v7.879c0,1.011-0.658,2.151-1.533,2.655l-6.822,3.94
            C20.145,30.527,19.6,30.663,19.033,30.663z M19.033,10.613c-0.25,0-0.493,0.054-0.645,0.141l-6.825,3.94
            c-0.325,0.189-0.645,0.742-0.645,1.117v7.879c0,0.377,0.32,0.93,0.645,1.117l6.825,3.942c0.305,0.176,0.984,0.176,1.289,0
            l6.826-3.942c0.324-0.188,0.645-0.74,0.645-1.117v-7.879c0-0.375-0.32-0.928-0.645-1.117l-6.826-3.94
            C19.527,10.667,19.285,10.613,19.033,10.613z"/>
        </g>
      </g>
      <polygon fill="#FFFFFF" points="24.623,14.691 16.941,21.001 13.429,18.413 12.014,19.936 16.35,24.979 17.115,25.868
        17.912,25.008 26.055,16.211 	"/>
    </g>
</svg>
